<svg xmlns="http://www.w3.org/2000/svg" width="100" height="100" viewBox="-200 -50 400 100">
        <circle r="180" stroke-width="10" stroke="#000" fill="#fda" />
        <circle r="160" stroke-width="10" stroke="#c00" fill="none" />
        <path transform="scale(0.75)" stroke-linecap="round" stroke-linejoin="round" stroke-width="20" stroke="#c00"
            fill="none"
            d="M-75,35 -125,70 -170,70 -170,40 -130,40 -97,18C-130,-60 -75,-106 30,-69L164,-20L164,22 70,30M-5,-40A65,65 180 0 0 -5,90A65,65 180 0 0 -5,-40M-5,-10A35,35 180 0 0 -5,60A35,35 180 0 0 -5,-10" />
</svg>